<?xml version="1.0" standalone="no"?>
<!DOCTYPE svg PUBLIC "-//W3C//DTD SVG 20010904//EN"
 "http://www.w3.org/TR/2001/REC-SVG-20010904/DTD/svg10.dtd">
<svg version="1.0" xmlns="http://www.w3.org/2000/svg"
 width="1024.000000pt" height="1024.000000pt" viewBox="0 0 1024.000000 1024.000000"
 preserveAspectRatio="xMidYMid meet">

<g transform="translate(0.000000,1024.000000) scale(0.100000,-0.100000)"
fill="#000000" stroke="none">
<path d="M4741 9184 c-106 -12 -197 -26 -202 -31 -4 -4 -13 -56 -20 -115 -10
-82 -16 -109 -28 -112 -9 -3 -50 -12 -91 -21 -41 -9 -88 -21 -104 -26 -58 -18
-55 -21 -182 158 -9 13 -35 6 -190 -56 -98 -39 -186 -75 -194 -80 -14 -10 -13
-24 16 -198 6 -30 4 -33 -89 -87 -52 -31 -101 -56 -108 -56 -7 0 -46 28 -88
62 -42 34 -81 66 -88 71 -8 6 -57 -24 -156 -97 -78 -58 -154 -117 -167 -131
l-23 -25 41 -102 c23 -57 42 -107 42 -112 0 -6 -30 -37 -67 -71 l-67 -61 -114
45 c-103 40 -115 43 -124 28 -9 -16 -79 -107 -176 -227 -71 -88 -71 -86 -13
-175 28 -43 54 -88 57 -100 8 -30 -54 -128 -75 -120 -67 26 -180 58 -201 57
-14 -1 -70 -12 -125 -26 -71 -18 -104 -31 -114 -46 -8 -11 -25 -20 -40 -20
-14 0 -57 -9 -96 -19 -426 -114 -434 -119 -507 -302 -33 -81 -34 -82 -82 -97
-26 -9 -54 -25 -61 -36 -13 -20 -35 -148 -35 -202 0 -13 10 -34 21 -45 18 -18
20 -28 14 -63 -5 -22 -7 -91 -6 -153 2 -93 0 -112 -13 -120 -14 -8 -15 -21
-10 -81 l7 -72 99 0 100 0 -31 -26 c-17 -14 -40 -42 -52 -63 -16 -29 -36 -45
-83 -67 -33 -16 -74 -37 -90 -48 l-29 -19 7 -381 c4 -210 14 -489 22 -621 24
-372 27 -546 12 -574 -10 -19 -29 -29 -86 -42 -78 -20 -154 -59 -177 -92 -8
-12 -15 -35 -15 -52 0 -92 94 -511 169 -755 49 -158 97 -195 282 -220 46 -6
98 -13 115 -16 27 -4 40 -18 90 -97 58 -92 100 -149 161 -220 27 -30 33 -46
33 -81 0 -60 16 -70 100 -68 65 3 72 1 120 -34 27 -20 73 -45 101 -55 62 -24
167 -26 225 -5 l41 14 59 -70 c99 -119 352 -356 472 -442 188 -134 203 -145
312 -210 178 -106 279 -161 435 -236 366 -176 656 -293 1229 -494 104 -36 201
-66 215 -66 41 0 681 225 881 310 41 17 113 47 160 67 82 34 184 79 338 149
197 90 595 317 712 406 14 11 66 49 116 86 172 127 353 298 496 470 l27 32 41
-16 c82 -33 211 -4 299 67 33 26 46 31 72 25 41 -8 79 15 79 48 0 13 25 55 58
97 54 68 95 130 179 273 33 54 33 54 99 65 95 17 166 46 201 83 30 33 38 54
128 358 40 132 87 382 92 486 5 100 5 101 -21 122 -34 26 -159 78 -225 94 -46
10 -50 14 -56 47 -8 51 8 125 45 203 l32 68 23 -28 c13 -16 35 -54 49 -85 33
-75 101 -140 207 -199 145 -80 209 -84 312 -18 57 36 105 129 118 231 5 41 16
103 24 139 33 149 28 211 -19 267 -22 27 -23 32 -13 88 7 44 7 80 -2 133 -11
66 -11 77 8 127 27 72 26 91 -3 110 -37 24 -131 55 -152 49 -22 -6 -64 -73
-64 -103 0 -13 -19 -33 -57 -58 -87 -58 -118 -94 -143 -167 -28 -85 -52 -77
-76 27 -3 15 -24 54 -45 87 -38 59 -94 100 -137 100 -10 0 -31 13 -47 30 -15
16 -44 35 -64 41 -57 18 -56 24 11 43 104 29 182 71 231 126 37 41 51 50 79
50 94 0 168 122 168 278 0 64 -15 111 -50 163 -17 24 -37 67 -46 96 -8 28 -21
57 -29 63 -8 7 -15 17 -15 22 0 22 -77 126 -141 189 -76 75 -128 114 -212 157
-30 16 -66 41 -79 56 -30 35 -113 56 -223 56 -91 0 -147 -13 -173 -39 -9 -10
-51 -28 -92 -41 -41 -12 -92 -31 -113 -42 l-39 -19 4 138 3 138 43 58 c33 44
48 57 60 51 58 -24 91 -27 130 -12 40 15 41 15 64 -9 39 -43 74 -56 113 -43
18 6 39 18 45 26 8 8 31 14 60 14 42 0 52 4 75 32 22 26 26 39 21 66 -3 19
-15 45 -27 58 -13 13 -17 24 -11 24 20 0 52 63 52 102 0 50 -45 102 -102 117
-31 8 -49 20 -64 44 -13 22 -26 31 -40 29 -46 -8 -69 -3 -89 22 -28 35 -118
48 -342 50 -159 2 -183 0 -183 -14 0 -12 -15 -15 -73 -17 -39 -1 -99 -9 -132
-17 -32 -9 -72 -16 -87 -16 -21 0 -31 -7 -38 -25 -5 -14 -15 -27 -22 -29 -7
-2 -28 -8 -46 -14 -33 -10 -33 -10 -77 51 -108 153 -98 143 -143 139 -38 -4
-40 -2 -50 30 -6 18 -15 58 -21 88 -5 31 -11 62 -13 69 -2 10 21 19 82 32 47
10 105 22 130 28 191 44 431 63 535 41 117 -24 184 -51 272 -108 86 -57 160
-93 216 -106 81 -19 274 -38 450 -43 l198 -6 -7 29 c-3 16 -39 146 -79 289
-40 143 -108 384 -150 535 -42 151 -78 281 -80 288 -3 6 -15 12 -27 12 -146 3
-408 22 -465 34 -97 21 -130 36 -241 107 -108 70 -179 101 -295 129 -142 34
-395 22 -656 -31 -51 -10 -97 -19 -102 -19 -5 0 -9 14 -9 30 0 48 -33 73 -87
67 -24 -2 -53 -13 -63 -22 -26 -23 -27 -79 -2 -97 13 -9 27 -56 50 -168 17
-85 34 -177 37 -205 l6 -50 -68 -51 c-37 -28 -73 -54 -80 -57 -8 -5 -202 88
-220 106 -2 2 4 54 13 116 9 61 15 113 13 115 -5 5 -232 99 -315 131 l-62 23
-67 -95 -67 -94 -41 7 c-23 3 -58 12 -78 19 -19 7 -61 18 -93 25 -31 6 -59 17
-62 23 -2 7 -8 56 -13 110 -4 54 -12 102 -17 107 -9 8 -326 50 -380 50 -29 0
-31 -3 -65 -107 l-35 -108 -112 -3 -112 -3 -21 48 c-11 26 -29 75 -41 108 -11
33 -23 63 -26 66 -4 3 -94 -4 -201 -17z m2174 -10 c9 -9 15 -26 13 -38 -3 -18
-10 -21 -58 -21 -45 0 -55 3 -58 18 -9 46 68 76 103 41z m10 -96 c3 -13 16
-84 30 -158 13 -74 40 -214 59 -310 20 -96 67 -339 107 -539 48 -247 81 -392
104 -455 33 -88 45 -107 25 -37 -5 19 -8 36 -6 38 2 2 26 -28 55 -67 28 -39
57 -73 65 -76 11 -4 12 -12 4 -39 -13 -42 -4 -80 27 -111 24 -24 24 -24 3 -35
-29 -15 -50 9 -82 96 -31 81 -27 49 8 -80 14 -49 26 -103 26 -119 0 -21 12
-39 45 -70 44 -40 46 -43 39 -85 -5 -29 -10 -38 -15 -29 -7 10 -9 10 -9 1 0
-20 -20 -15 -20 5 0 12 -3 13 -8 4 -9 -13 -22 -1 -78 72 -45 60 -64 82 -64 75
0 -15 113 -154 140 -170 l30 -19 0 -120 c0 -73 -4 -120 -10 -120 -6 0 -10 45
-10 115 l0 114 -37 10 c-21 6 -51 11 -66 11 -16 0 -86 13 -155 29 -70 16 -146
32 -169 36 l-43 7 -2 -204 c-1 -148 -3 -184 -8 -133 -4 39 -8 171 -9 295 -1
131 -5 219 -10 211 -9 -14 -180 -36 -213 -28 -19 5 -28 -19 -28 -81 0 -43 0
-43 -32 -40 -32 3 -33 5 -38 54 l-5 51 95 46 c52 25 112 53 133 62 l37 15 -1
298 c-1 163 -4 288 -6 277 -12 -47 -48 -42 -180 22 -87 42 -93 47 -95 76 -3
61 -16 -319 -18 -558 -1 -132 -5 -289 -9 -350 -6 -103 -6 -96 -13 119 -5 126
-8 331 -9 455 -1 124 -4 215 -8 201 -5 -17 -9 -21 -15 -12 -4 7 -11 10 -16 7
-5 -3 -18 0 -29 7 -16 10 -20 21 -17 48 2 19 1 26 -1 15 -7 -28 -12 -32 -65
-39 l-48 -7 0 50 c0 47 2 51 28 57 44 10 78 22 62 23 -9 1 -22 9 -29 19 -7 11
-22 17 -35 16 -216 -34 -458 -82 -413 -83 28 -1 36 -15 15 -25 -7 -3 12 -4 42
-3 l55 2 3 -39 c4 -48 -2 -54 -61 -62 l-47 -7 -2 39 -1 39 -4 -34 c-3 -19 -11
-40 -18 -48 -12 -11 -14 -6 -18 34 -2 27 -4 -22 -5 -107 -1 -85 -5 -172 -9
-193 l-6 -38 -76 6 c-54 5 -87 2 -116 -8 l-40 -14 0 -141 c0 -77 -3 -143 -6
-146 -3 -3 -19 0 -36 6 -31 12 -31 12 -215 -39 -11 -3 -17 2 -20 19 -2 15 -16
29 -41 41 -36 17 -38 20 -35 60 3 41 4 42 38 40 28 -2 31 -1 15 6 -11 5 -28
12 -37 15 -13 4 -18 16 -18 47 0 41 1 41 30 36 16 -4 32 -2 35 2 6 10 -18 21
-46 21 -16 0 -19 7 -19 40 0 24 5 40 12 40 6 0 3 9 -7 20 -17 18 -17 20 -2 14
9 -3 17 -4 17 -1 0 3 -13 10 -29 15 -25 9 -29 8 -24 -4 4 -10 0 -13 -13 -8
-18 5 -18 5 -1 -6 23 -15 25 -95 1 -86 -9 3 -19 6 -24 6 -5 0 -12 19 -16 43
-5 33 -8 38 -14 22 -7 -17 -8 -16 -12 10 -4 24 -5 21 -7 -14 -1 -35 -4 -42
-17 -37 -9 3 -24 6 -35 6 -16 0 -19 7 -19 46 l0 47 33 -7 c23 -4 28 -3 17 4
-13 9 -13 10 0 11 16 1 -57 37 -77 38 -10 1 -13 -73 -13 -339 0 -220 -4 -340
-10 -340 -6 0 -10 127 -10 360 0 281 -3 360 -12 360 -7 0 -49 -11 -93 -24
l-80 -23 -5 -93 -5 -94 -95 -19 c-52 -10 -140 -29 -195 -41 l-100 -23 -6 -74
c-5 -73 -5 -73 -8 -19 -5 81 -11 43 -19 -120 -6 -121 -9 -68 -15 329 -4 261
-10 477 -12 479 -3 3 -72 -10 -153 -29 l-149 -34 -7 -89 c-3 -49 -6 -220 -6
-379 0 -243 2 -292 15 -301 12 -9 12 -18 4 -51 -6 -22 -11 -52 -10 -67 0 -24
-4 -28 -27 -29 l-27 -2 26 -4 c20 -3 26 -10 27 -29 0 -22 -4 -24 -47 -24 -46
0 -99 19 -56 20 19 1 19 1 3 14 -26 19 -22 26 15 27 l32 2 -35 7 c-19 4 -29 8
-22 9 7 0 10 6 7 11 -4 6 13 11 42 11 31 1 37 3 18 6 -77 9 -75 7 -76 81 -1
44 -3 59 -8 42 -7 -24 -7 -24 -14 8 -5 26 -11 32 -24 28 -10 -3 -64 -17 -120
-32 l-103 -27 0 -252 0 -253 -25 -4 c-17 -4 -26 0 -29 11 -3 9 -10 149 -15
311 -6 162 -13 343 -16 403 -2 59 -3 107 -1 107 2 0 48 -20 103 -44 110 -48
232 -91 239 -83 11 10 -12 39 -74 95 -69 61 -259 202 -272 202 -4 0 -2 18 3
39 19 69 -50 404 -73 360 -22 -41 -45 -212 -43 -316 l2 -112 -132 -118 c-165
-148 -167 -150 -167 -168 0 -29 46 -15 174 55 70 39 130 70 133 70 3 0 2 -48
-1 -107 -3 -60 -13 -250 -22 -423 -9 -173 -17 -315 -17 -316 -1 -1 -23 -4 -49
-7 l-48 -7 0 66 c0 57 -3 67 -20 71 -22 6 -26 33 -10 62 10 19 -12 191 -47
366 l-19 90 -79 27 c-76 25 -80 28 -90 65 -10 36 -14 39 -85 62 -41 13 -80 25
-87 27 -14 4 136 228 225 336 224 272 585 538 922 681 205 87 364 132 600 173
128 22 198 27 398 31 282 6 433 -5 640 -48 429 -89 750 -235 1102 -502 58 -44
130 -103 160 -131 30 -28 42 -37 26 -19 -27 30 -28 33 -10 39 10 4 22 12 26
17 3 6 9 -12 13 -39 4 -27 13 -65 20 -84 7 -19 23 -80 35 -135 13 -55 37 -144
55 -197 23 -71 29 -100 21 -108 -7 -8 -1 -7 17 1 15 7 27 16 27 22 0 5 -18 69
-39 142 -22 73 -54 206 -71 296 -17 90 -47 243 -67 339 -40 198 -34 166 -108
557 -30 161 -55 294 -55 297 0 5 25 13 47 15 7 0 15 -9 18 -21z m-1475 -289
c145 -13 422 -68 565 -113 124 -38 338 -122 423 -165 187 -95 461 -273 536
-348 22 -22 44 -89 32 -100 -2 -3 -44 28 -92 68 -274 233 -607 408 -965 508
-430 121 -941 143 -1379 61 -402 -76 -815 -265 -1136 -521 -221 -177 -485
-475 -590 -666 -26 -47 -33 -53 -61 -53 -18 0 -33 4 -33 9 0 16 151 234 226
326 181 222 370 394 608 552 365 244 727 377 1186 438 120 16 528 18 680 4z
m2482 -77 c-7 -2 -12 -21 -12 -43 0 -21 -5 -39 -10 -39 -6 0 -8 10 -6 23 3 12
8 40 11 62 6 34 8 37 17 20 8 -14 8 -20 0 -23z m57 -188 c26 -33 27 -56 3 -78
-18 -15 -21 -15 -45 5 -21 16 -27 29 -27 60 0 35 3 39 24 39 15 0 33 -11 45
-26z m105 -59 c-10 -8 -23 -14 -29 -14 -5 0 -1 6 9 14 11 8 24 15 30 15 5 0 1
-7 -10 -15z m-170 -77 c5 -4 -14 -17 -41 -30 l-49 -24 9 58 10 59 31 -28 c17
-15 35 -31 40 -35z m156 -6 l0 -26 -21 21 c-14 13 -19 28 -15 38 9 25 36 0 36
-33z m-60 -12 c7 -13 7 -20 1 -20 -6 0 -15 9 -21 20 -7 13 -7 20 -1 20 6 0 15
-9 21 -20z m-1800 -474 c0 -48 -9 -56 -64 -56 -25 0 -35 6 -44 25 -7 14 -12
31 -12 37 0 20 35 37 78 38 l42 0 0 -44z m-1894 -68 c-3 -31 -21 -46 -58 -47
-14 -1 -18 7 -18 32 0 42 5 47 47 47 31 0 33 -2 29 -32z m-138 -63 c-2 -1 -18
-6 -36 -10 l-33 -7 3 39 c3 33 7 39 33 43 28 5 30 3 33 -28 2 -19 2 -35 0 -37z
m2230 16 c4 -52 -6 -61 -66 -61 l-43 0 3 48 c3 45 4 47 38 53 59 11 65 8 68
-40z m-198 -30 c0 -53 -10 -61 -72 -61 -27 0 -28 2 -28 49 0 49 1 50 33 54 71
9 67 11 67 -42z m-182 -25 c4 -47 -1 -52 -60 -60 l-48 -7 0 30 c0 17 -4 31
-10 31 -5 0 -10 9 -10 21 0 11 4 18 8 15 4 -2 14 0 22 5 8 5 33 8 55 7 39 -3
40 -4 43 -42z m-1710 -23 c-3 -33 -7 -38 -35 -44 -33 -6 -33 -6 -33 32 0 33 3
38 28 42 15 2 31 5 35 6 5 0 7 -16 5 -36z m-138 -32 c0 -35 -3 -39 -30 -43
-37 -6 -40 -3 -40 38 0 28 4 33 28 37 15 2 30 5 35 6 4 0 7 -16 7 -38z m2225
-47 l0 -49 -48 -5 c-26 -4 -50 -4 -52 -1 -3 2 -5 24 -5 47 0 46 -3 43 65 57
35 8 40 1 40 -49z m-195 -23 c0 -53 -10 -61 -72 -61 -27 0 -28 2 -28 49 l0 50
38 4 c20 2 43 4 50 5 8 1 12 -14 12 -47z m-1099 11 c-7 -2 -18 1 -23 6 -8 8
-4 9 13 5 13 -4 18 -8 10 -11z m913 2 c8 -22 7 -82 -1 -87 -5 -3 -30 -8 -56
-11 l-48 -7 3 53 3 53 40 6 c22 3 43 7 46 8 4 0 10 -6 13 -15z m-1704 -38 c0
-39 -3 -43 -45 -47 -28 -4 -30 -2 -33 33 -3 38 -3 38 66 47 7 0 12 -12 12 -33z
m3841 14 l24 -19 -48 -1 c-27 0 -64 -7 -82 -16 -26 -12 -38 -13 -52 -4 -16 10
-16 11 5 6 17 -3 25 1 32 19 5 12 15 25 22 28 29 12 77 6 99 -13z m-3981 -45
c0 -24 -5 -35 -14 -35 -8 0 -21 -3 -29 -6 -11 -4 -17 4 -22 27 -8 35 4 49 43
49 19 0 22 -5 22 -35z m-1580 -75 c243 -75 420 -128 444 -132 20 -3 44 -33 34
-43 -3 -4 -66 12 -139 35 -350 109 -459 140 -489 140 -14 0 -14 9 23 -295 30
-253 38 -337 27 -310 -8 21 -14 13 -23 -30 -2 -11 -7 7 -11 40 -13 99 -55 373
-75 485 -36 200 -36 182 -4 174 15 -4 111 -32 213 -64z m-390 25 c0 -20 -7
-26 -41 -35 -56 -15 -83 -10 -87 17 -3 18 4 23 40 31 75 17 88 15 88 -13z
m4198 -27 l-3 -53 -52 -3 -53 -3 0 50 c0 49 1 50 33 54 82 10 78 12 75 -45z
m-198 -22 l0 -54 -44 -3 -44 -4 -5 45 c-3 25 -4 46 -2 48 1 1 22 6 46 11 24 5
45 9 47 10 1 1 2 -23 2 -53z m-1900 0 c0 -33 -13 -46 -46 -46 -22 0 -19 67 4
73 37 10 42 7 42 -27z m818 28 c18 -5 22 -13 22 -45 0 -45 -9 -53 -44 -39 -22
8 -26 16 -26 50 0 41 5 45 48 34z m-948 -54 c0 -38 -2 -40 -30 -40 -25 0 -30
4 -30 25 0 14 -1 28 -2 32 -2 4 11 11 27 14 17 4 31 7 33 8 1 0 2 -17 2 -39z
m1060 -17 c0 -41 -1 -44 -22 -37 -28 8 -24 2 -31 50 -7 40 -7 40 23 36 28 -4
30 -7 30 -49z m-2724 22 c20 -8 82 -26 138 -40 55 -14 137 -36 181 -50 44 -13
116 -35 159 -48 l80 -22 13 -50 c7 -28 16 -92 20 -142 l6 -93 -70 0 -69 0 -20
-37 c-13 -25 -28 -39 -44 -42 -14 -1 -28 -8 -32 -14 -4 -7 -13 2 -22 23 -8 19
-15 27 -16 18 0 -15 -3 -15 -39 -1 -46 18 -89 57 -112 100 -11 20 -38 41 -80
63 -35 17 -69 36 -75 41 -11 9 -26 74 -54 233 -15 88 -18 84 36 61z m-295 -16
c42 -6 81 -14 86 -17 14 -9 70 -412 58 -412 -17 0 -35 81 -46 201 -7 87 -16
139 -26 149 -10 11 -44 16 -143 19 -72 1 -130 -1 -130 -5 0 -5 57 -10 126 -11
78 -1 131 -7 140 -14 9 -7 14 -33 14 -73 1 -60 11 -155 25 -228 7 -36 6 -38
-18 -38 -30 0 -41 -13 -32 -39 3 -12 17 -21 33 -23 28 -3 42 -32 24 -50 -6 -6
-42 -14 -82 -18 -78 -9 -101 -22 -130 -80 -18 -35 -19 -36 -76 -33 -32 1 -63
-2 -69 -7 -6 -5 -17 -5 -25 0 -11 7 -14 38 -14 137 0 129 12 203 56 352 21 73
18 94 -5 29 -29 -84 -57 -224 -63 -325 l-7 -103 -28 0 c-15 0 -39 -4 -54 -10
-25 -10 -26 -9 -19 25 11 61 10 70 -14 80 -12 5 -20 16 -17 23 3 8 5 17 5 22
0 4 17 10 38 14 48 7 66 27 85 91 86 293 86 292 65 313 -7 7 -36 12 -64 12
-75 0 -76 16 -2 28 69 11 192 7 309 -9z m3750 -9 l49 0 0 -35 c0 -29 -4 -35
-22 -36 l-23 -2 23 -4 c12 -2 22 -11 22 -19 0 -8 -10 -15 -22 -15 l-23 -2 23
-4 c21 -4 22 -9 22 -99 l0 -94 -110 0 c-81 0 -110 3 -110 13 0 9 20 11 72 10
51 -1 65 1 48 7 -14 4 -46 8 -72 9 -36 1 -48 5 -48 16 0 11 14 15 58 17 l57 2
-57 3 -58 4 0 59 0 60 48 2 47 2 -47 3 c-33 3 -48 9 -48 18 0 11 12 13 53 9
38 -4 48 -3 37 5 -8 6 -32 11 -52 11 -37 0 -38 1 -38 36 l0 37 61 -7 c34 -3
84 -6 110 -6z m-4311 -55 c-14 -8 -32 -14 -40 -14 -8 0 -1 7 15 14 39 18 57
18 25 0z m307 -22 c-10 -59 -60 -100 -133 -108 -66 -7 -66 -7 -125 -55 -24
-19 -40 -29 -36 -22 6 8 0 12 -17 13 -14 1 -29 2 -33 3 -5 1 -36 6 -71 10 -55
7 -65 6 -77 -10 -23 -31 -17 -7 14 55 28 54 34 59 88 79 138 49 230 69 332 71
l64 1 -6 -37z m2343 -2 c0 -34 -3 -39 -27 -44 -37 -7 -40 -4 -35 37 3 29 9 36
31 39 14 2 27 5 29 6 1 0 2 -16 2 -38z m838 1 c5 -50 -2 -59 -37 -54 -29 4
-31 7 -31 49 0 44 0 44 33 41 28 -3 32 -7 35 -36z m1257 -12 l0 -45 -48 -3
-47 -3 0 35 c0 20 -1 39 -2 43 -3 9 48 22 77 19 17 -1 20 -8 20 -46z m-1155
-21 c0 -43 -7 -51 -38 -42 -18 4 -22 13 -22 47 0 42 1 42 30 38 27 -4 30 -8
30 -43z m958 4 l-3 -48 -47 -3 -48 -3 0 45 c0 41 2 45 28 49 74 11 73 11 70
-40z m-2028 3 c0 -30 -3 -34 -30 -38 -36 -5 -40 -2 -40 33 0 23 5 28 28 32 15
2 30 5 35 6 4 0 7 -14 7 -33z m3180 -37 c0 -10 -4 -19 -10 -19 -5 0 -10 12
-10 26 0 14 4 23 10 19 6 -3 10 -15 10 -26z m-4198 -23 c80 -25 85 -30 97 -99
6 -35 11 -73 11 -85 0 -21 -2 -20 -27 8 -21 22 -38 31 -68 33 l-39 2 -13 60
c-12 57 -16 95 -10 95 1 0 23 -7 49 -14z m4843 -50 c-10 -25 -15 -55 -12 -66
7 -27 -5 -25 -42 6 -39 32 -39 50 -2 57 16 4 38 17 48 31 25 34 28 25 8 -28z
m114 -20 c0 -6 -16 -24 -35 -39 l-34 -29 0 34 c0 18 -3 51 -7 72 l-6 40 41
-34 c23 -18 42 -38 41 -44z m-2971 13 l3 -45 -36 4 c-34 4 -35 5 -35 49 0 44
0 44 33 41 30 -3 32 -5 35 -49z m-838 7 c0 -30 -3 -34 -30 -38 -28 -4 -30 -2
-30 28 0 32 9 42 43 43 13 1 17 -7 17 -33z m938 -18 c-3 -39 -5 -43 -28 -40
-30 5 -26 -1 -33 45 -6 37 -6 37 29 37 35 0 35 0 32 -42z m-1068 -3 c0 -19 -3
-35 -7 -35 -5 0 -18 -3 -30 -6 -21 -6 -23 -3 -23 29 0 25 5 37 18 40 37 10 42
7 42 -28z m1146 3 c-6 -30 -20 -47 -38 -48 -5 0 -8 18 -8 40 0 37 2 40 26 40
24 0 26 -3 20 -32z m1074 -13 l0 -45 -45 0 -45 0 0 39 c0 43 7 49 58 50 31 1
32 0 32 -44z m-190 -15 c0 -37 -1 -38 -42 -42 -24 -3 -46 -3 -50 -1 -5 2 -8
22 -8 43 0 39 0 39 43 42 56 4 57 3 57 -42z m610 -35 l0 -45 -45 0 -45 0 0 39
c0 36 3 40 28 44 63 9 62 10 62 -38z m-2930 -30 c0 -41 -2 -45 -25 -45 -23 0
-25 4 -25 45 0 41 2 45 25 45 23 0 25 -4 25 -45z m4045 8 c17 -20 35 -46 42
-57 13 -23 16 -133 6 -238 -6 -69 -23 -95 -23 -35 0 18 -20 100 -45 182 -25
83 -45 158 -45 168 0 29 33 19 65 -20z m-4155 -24 c0 -37 -2 -39 -30 -39 -28
0 -30 2 -30 39 0 33 4 40 23 43 33 6 37 1 37 -43z m40 5 c0 -59 -24 -55 -28 4
-2 33 0 42 12 42 12 0 16 -11 16 -46z m1330 -10 c0 -45 0 -45 -32 -42 -31 3
-33 6 -36 46 l-3 42 35 0 c36 0 36 0 36 -46z m-840 1 c0 -32 -2 -35 -30 -35
-26 0 -30 4 -30 28 0 35 6 42 37 42 20 0 23 -5 23 -35z m938 -13 c3 -42 2 -43
-25 -40 -25 3 -28 7 -31 46 -3 42 -2 43 25 40 25 -3 28 -7 31 -46z m2530 -79
c31 -96 39 -129 29 -135 -21 -13 -45 -9 -51 10 -2 9 -3 3 -1 -14 2 -25 -1 -31
-14 -29 -9 2 -26 4 -38 4 -12 1 -29 8 -37 16 -9 9 -39 28 -68 43 -47 25 -55
34 -76 87 -13 33 -29 71 -36 85 -12 25 -12 25 39 27 47 2 53 -1 69 -28 14 -24
21 -28 31 -19 10 8 19 8 32 1 14 -8 18 -22 18 -67 0 -56 0 -57 37 -70 l37 -13
-6 32 c-3 18 -15 50 -26 72 -32 64 -38 93 -21 110 9 8 21 15 27 15 7 0 31 -57
55 -127z m-3598 72 c0 -32 -2 -35 -30 -35 -28 0 -30 3 -30 35 0 32 2 35 30 35
28 0 30 -3 30 -35z m1840 25 c0 -7 -39 -10 -110 -8 -60 2 -110 6 -110 11 0 4
50 7 110 7 69 0 110 -4 110 -10z m615 -30 c0 -20 -6 -26 -27 -28 -25 -3 -28 0
-28 28 0 28 3 31 28 28 21 -2 27 -8 27 -28z m-235 -35 l0 -45 -45 0 -45 0 0
39 c0 42 7 48 63 50 26 1 27 -1 27 -44z m-380 -15 c0 -41 -3 -50 -17 -51 -17
-1 -17 -2 0 -6 9 -2 17 -11 17 -19 0 -11 -21 -14 -110 -14 -143 0 -149 19 -10
33 19 2 5 5 -32 5 -53 2 -68 5 -68 17 0 11 14 15 58 17 l57 2 -58 3 c-63 4
-75 24 -21 33 24 5 26 7 11 13 -11 4 -23 5 -27 2 -5 -3 -11 -1 -15 5 -4 6 32
10 104 10 l111 0 0 -50z m178 -25 c-2 -2 -19 -6 -39 -10 l-37 -7 -4 41 -3 40
40 3 c39 3 40 2 43 -31 2 -18 2 -34 0 -36z m622 22 l0 -38 -42 3 c-36 3 -44 7
-46 26 -6 42 5 53 48 50 39 -2 40 -3 40 -41z m-3040 -12 c0 -43 -1 -45 -30
-45 -28 0 -30 2 -30 39 0 36 3 40 28 44 15 2 28 5 30 6 1 0 2 -19 2 -44z m40
0 c0 -25 -4 -45 -9 -45 -9 0 -20 77 -12 86 14 13 21 -1 21 -41z m70 6 c0 -33
-3 -39 -25 -43 -24 -5 -25 -3 -25 38 0 40 2 44 25 44 22 0 25 -4 25 -39z
m2742 0 c7 -31 -4 -51 -28 -51 -20 0 -24 5 -24 33 0 27 4 32 24 33 16 1 26 -4
28 -15z m-1498 3 c16 -6 21 -39 10 -68 -4 -10 -18 -16 -35 -16 -27 0 -29 3
-29 38 0 51 13 62 54 46z m112 -19 c4 -8 3 -26 0 -40 -5 -18 -13 -25 -31 -25
-22 0 -25 4 -25 40 0 36 2 40 25 40 14 0 28 -7 31 -15z m-956 -2 c-14 -3 -28
-10 -32 -17 -5 -7 -8 -5 -8 7 0 13 8 17 33 16 27 -2 28 -2 7 -6z m2713 0 c-7
-2 -21 -2 -30 0 -10 3 -4 5 12 5 17 0 24 -2 18 -5z m-2933 -43 c0 -5 -25 -10
-55 -10 -30 0 -55 5 -55 10 0 6 25 10 55 10 30 0 55 -4 55 -10z m2945 0 c4 -6
-7 -10 -24 -10 -17 0 -31 5 -31 10 0 6 11 10 24 10 14 0 28 -4 31 -10z m-3265
-45 c0 -33 -4 -45 -15 -45 -11 0 -15 11 -15 38 0 21 3 42 7 45 16 16 23 4 23
-38z m30 0 c0 -25 -4 -45 -10 -45 -11 0 -14 73 -3 83 11 12 13 8 13 -38z m40
0 c0 -31 -4 -45 -13 -45 -9 0 -13 13 -11 43 2 23 3 43 3 45 1 1 6 2 11 2 6 0
10 -20 10 -45z m60 6 c0 -24 -5 -41 -14 -44 -20 -8 -26 2 -26 45 0 31 3 38 20
38 17 0 20 -7 20 -39z m2755 3 c0 -13 -8 -20 -27 -22 -22 -3 -28 1 -28 17 0
18 22 31 45 26 6 -1 10 -10 10 -21z m-2567 -1 c2 -9 -7 -13 -30 -13 -43 0 -78
10 -78 22 0 14 103 5 108 -9z m2752 -12 c0 -30 -14 -41 -56 -41 -21 0 -24 5
-24 35 0 34 1 35 40 35 37 0 40 -2 40 -29z m-822 13 c46 -10 19 -19 -65 -22
-110 -4 -168 10 -78 18 104 9 119 9 143 4z m1011 -10 c10 -9 -6 -12 -31 -7
-15 3 -25 9 -22 15 5 8 41 2 53 -8z m-2944 -29 c0 -13 -40 -19 -71 -11 -43 11
-26 27 24 24 26 -2 47 -7 47 -13z m2565 -30 c0 -20 -5 -25 -25 -25 -20 0 -25
5 -25 25 0 20 5 25 25 25 20 0 25 -5 25 -25z m380 15 c0 -5 -11 -10 -25 -10
-14 0 -25 5 -25 10 0 6 11 10 25 10 14 0 25 -4 25 -10z m-5095 -48 c0 -17 3
-32 7 -32 18 0 6 -29 -14 -36 -37 -11 -103 -64 -110 -87 -3 -12 -6 9 -7 48 -1
80 13 109 63 131 46 20 61 14 61 -24z m483 18 c2 -12 -15 -15 -98 -17 -55 -1
-109 -7 -120 -13 -11 -6 -30 -30 -42 -53 -26 -52 -36 -32 -13 29 26 68 43 75
165 72 84 -2 105 -6 108 -18z m1659 14 c-3 -3 -12 -4 -19 -1 -8 3 -5 6 6 6 11
1 17 -2 13 -5z m4483 -5 c146 -18 300 -97 408 -209 68 -71 142 -181 164 -245
l17 -50 -25 -20 c-23 -18 -27 -33 -39 -135 -23 -198 -45 -298 -72 -331 -37
-44 -175 -108 -262 -122 -51 -8 -74 -8 -79 0 -4 6 -24 20 -45 32 -46 26 -147
30 -147 7 0 -8 -10 -22 -22 -30 -20 -15 -21 -16 -4 -16 11 0 16 -3 13 -6 -4
-4 -54 -1 -112 6 -77 9 -109 18 -121 31 -9 10 -20 16 -24 14 -4 -3 -10 10 -14
27 -3 17 -21 45 -39 61 -17 15 -26 25 -18 21 8 -4 -4 17 -27 47 -22 30 -42 65
-44 79 -4 24 -5 23 -21 -12 -10 -21 -33 -102 -53 -180 -20 -79 -38 -145 -40
-147 -2 -3 -14 5 -27 16 -12 12 -48 37 -79 57 -215 136 -440 195 -503 131 -31
-30 -31 -56 -4 -105 24 -42 101 -96 294 -205 284 -162 429 -285 496 -425 45
-93 59 -156 59 -269 0 -116 -13 -182 -52 -261 -60 -123 -188 -213 -348 -245
-113 -23 -317 -16 -443 14 -196 47 -344 114 -540 244 -67 45 -77 55 -74 77 4
22 109 394 122 428 3 8 28 -7 72 -44 149 -127 345 -234 479 -261 92 -19 141
-13 181 21 33 29 37 81 10 138 -19 39 -48 59 -242 163 -436 234 -595 458 -555
783 18 147 64 236 166 323 102 86 239 120 408 99 147 -18 222 -40 446 -129 30
-13 49 -17 43 -10 -8 8 -13 40 -13 82 0 66 -1 69 -28 79 l-27 11 39 81 c66
138 210 263 392 338 143 59 190 65 334 47z m-4790 -21 c0 -13 -5 -30 -10 -38
-7 -11 -10 -5 -10 23 0 20 5 37 10 37 6 0 10 -10 10 -22z m30 2 c0 -11 -2 -20
-4 -20 -2 0 -6 9 -9 20 -3 11 -1 20 4 20 5 0 9 -9 9 -20z m40 8 c0 -7 -5 -20
-10 -28 -8 -12 -10 -9 -10 13 0 15 5 27 10 27 6 0 10 -6 10 -12z m3175 -8 c18
-8 17 -9 -7 -9 -16 -1 -28 4 -28 9 0 12 8 12 35 0z m-5221 -63 c-9 -56 -21
-67 -26 -23 -2 20 0 36 4 36 4 0 8 9 8 21 0 11 5 17 10 14 6 -4 7 -24 4 -48z
m4856 13 c0 -25 -4 -30 -25 -30 -21 0 -25 5 -25 30 0 25 4 30 25 30 21 0 25
-5 25 -30z m-3809 0 c12 -7 19 -21 19 -40 l0 -30 -135 0 -135 0 0 40 0 40 116
0 c63 0 124 -5 135 -10z m4182 3 c-7 -2 -21 -2 -30 0 -10 3 -4 5 12 5 17 0 24
-2 18 -5z m-3761 -24 c-15 -6 -30 -5 -40 1 -13 7 -8 9 23 9 35 0 37 -1 17 -10z
m-1878 -81 c7 -46 3 -56 -18 -39 -17 14 -27 61 -19 91 6 21 7 21 18 6 7 -9 15
-35 19 -58z m5646 62 c0 -13 -20 -13 -40 0 -12 8 -9 10 13 10 15 0 27 -4 27
-10z m-5067 -57 c3 -31 4 -60 1 -65 -3 -4 -37 -8 -76 -8 -60 0 -69 2 -64 16 3
9 6 22 6 29 0 27 78 83 116 85 6 0 14 -25 17 -57z m4687 12 c0 -9 -9 -15 -25
-15 -16 0 -25 6 -25 15 0 9 9 15 25 15 16 0 25 -6 25 -15z m345 -5 c3 -5 1
-10 -4 -10 -6 0 -11 5 -11 10 0 6 2 10 4 10 3 0 8 -4 11 -10z m-4606 -36 c82
-69 56 -215 -41 -231 -33 -5 -41 -2 -73 30 -19 19 -35 40 -35 45 0 5 15 -5 34
-24 47 -47 98 -48 126 -1 48 78 4 187 -76 187 -50 0 -77 -29 -85 -91 l-6 -54
-2 52 c-1 42 4 57 25 82 34 41 88 43 133 5z m-982 -6 c-3 -8 -6 -5 -6 6 -1 11
2 17 5 13 3 -3 4 -12 1 -19z m1813 -40 c0 -6 18 -8 48 -5 l47 6 -50 -14 c-27
-8 -64 -15 -82 -15 l-31 0 21 24 c20 23 47 25 47 4z m1335 -19 c111 -43 190
-94 256 -168 197 -216 176 -585 -48 -864 -79 -98 -336 -360 -450 -459 -46 -40
-83 -74 -83 -77 0 -3 109 -1 242 6 134 6 287 12 341 12 l97 1 -2 -197 -3 -198
-235 -7 c-355 -10 -857 -35 -1067 -53 l-63 -6 1 223 1 223 106 92 c234 202
584 549 651 646 77 113 98 202 65 274 -22 44 -50 62 -110 69 -100 12 -228 -29
-407 -132 -88 -50 -117 -59 -117 -35 0 5 -34 70 -75 146 -42 75 -85 155 -96
176 l-20 39 46 49 c83 89 219 173 365 226 126 45 191 55 360 51 149 -2 158 -4
245 -37z m-3169 4 c-8 -8 -36 5 -36 17 0 7 6 7 21 0 11 -7 18 -14 15 -17z
m982 -17 c6 -49 -37 -76 -58 -36 -14 26 -5 57 18 63 28 7 37 2 40 -27z m738
15 c-10 -15 -66 -19 -66 -4 0 8 13 13 36 13 19 0 33 -4 30 -9z m2284 -11 c96
-5 193 -10 215 -10 46 0 20 44 215 -369 60 -129 111 -236 113 -237 2 -2 29 47
59 109 31 61 93 187 138 280 l83 167 34 0 c29 0 279 -28 408 -45 l40 -5 -5
-968 -5 -967 -50 3 c-64 4 -337 30 -392 38 l-43 6 -1 502 c0 474 -1 500 -17
477 -9 -13 -70 -121 -135 -240 -109 -198 -130 -230 -149 -231 -6 0 -249 455
-280 524 -11 26 -14 -46 -18 -475 l-5 -504 -220 3 c-121 2 -241 5 -267 8 l-48
6 0 975 0 975 78 -6 c42 -4 156 -11 252 -16z m-2515 -40 c-3 -5 -30 -10 -58
-9 -38 0 -47 3 -32 9 29 12 98 12 90 0z m-1247 -65 c-2 -1 -27 -5 -55 -8 l-53
-6 0 29 c0 27 3 29 53 37 l52 8 3 -28 c2 -16 2 -30 0 -32z m1408 -30 c83 -19
164 -59 218 -107 154 -135 163 -441 19 -613 -43 -52 -129 -115 -199 -147 l-49
-22 65 -7 c163 -18 277 -95 339 -229 21 -45 26 -73 29 -160 5 -135 -8 -206
-57 -306 -72 -145 -213 -271 -385 -343 -83 -35 -151 -52 -291 -75 -228 -37
-946 -170 -1055 -195 -25 -6 -48 -11 -53 -11 -4 0 -6 462 -5 1027 l3 1027 205
33 c189 30 343 54 760 118 182 27 366 32 456 10z m4772 -117 c-3 -7 -22 -14
-44 -16 -37 -2 -38 -1 -20 13 24 18 69 20 64 3z m1368 -36 c16 -10 41 -62 48
-102 l7 -35 -14 30 c-8 17 -27 41 -42 55 -39 36 -50 60 -28 60 10 0 23 -4 29
-8z m324 -667 c52 -27 53 -27 44 -61 -5 -18 -10 -20 -42 -14 -20 3 -47 12 -59
18 -19 11 -20 15 -10 47 6 19 12 35 14 35 2 0 26 -11 53 -25z m-699 -46 c29
-15 39 -27 52 -71 41 -130 49 -292 21 -424 -15 -75 -65 -227 -88 -273 l-13
-23 -21 35 c-28 48 -75 58 -132 28 l-40 -21 -80 22 c-65 17 -80 25 -80 41 0
10 -7 34 -16 52 l-15 33 38 36 c36 33 61 47 140 76 28 11 31 14 21 34 -13 30
-54 24 -62 -10 -7 -28 -18 -30 -36 -9 -14 17 -40 20 -40 5 0 -5 -12 -13 -26
-16 -16 -4 -23 -12 -20 -20 6 -16 -30 -19 -53 -5 -11 7 -10 11 7 20 11 6 27
11 34 11 7 0 28 13 46 30 18 16 40 34 50 39 16 10 16 10 -1 11 -24 0 -132 -54
-169 -85 -16 -14 -33 -25 -36 -25 -4 0 -20 27 -35 59 -15 32 -50 89 -78 127
-37 52 -49 77 -49 104 0 34 43 216 53 227 3 2 16 -2 29 -10 96 -62 347 -84
441 -38 32 15 49 31 53 47 6 22 10 24 38 18 17 -3 47 -15 67 -25z m132 -75
c46 -23 66 -44 89 -87 27 -53 28 -115 3 -134 -18 -12 -20 -12 -24 4 -8 42 -56
61 -63 26 -2 -10 -12 23 -21 72 -9 50 -20 100 -23 113 -8 26 -3 27 39 6z m572
-6 c10 -9 35 -166 30 -185 -4 -19 -10 -22 -38 -17 -30 5 -31 4 -13 -10 10 -8
23 -17 28 -18 5 -2 5 -15 -1 -31 -9 -24 -14 -27 -38 -20 -49 13 -102 8 -120
-10 -22 -22 -22 -81 1 -106 18 -20 17 -20 -36 -15 -51 6 -54 5 -70 -26 -22
-39 -23 -59 -3 -87 14 -19 13 -22 -10 -37 -22 -15 -25 -23 -25 -82 0 -60 2
-67 34 -99 19 -19 46 -37 61 -41 45 -11 22 -29 -39 -29 -37 0 -70 8 -99 22
-23 12 -68 33 -100 48 -85 39 -86 45 -26 169 46 98 69 134 54 86 -8 -24 -2
-25 30 -4 14 9 35 14 48 11 18 -5 15 0 -13 23 -19 16 -29 30 -22 30 7 0 10 5
7 10 -7 12 -35 -12 -36 -32 0 -8 -2 -9 -5 -2 -6 14 54 149 63 141 3 -3 16 7
29 23 14 16 35 30 47 32 14 2 29 17 40 41 18 36 18 39 2 64 l-17 26 28 -7 c25
-5 24 -3 -9 15 -36 19 -38 22 -24 42 8 12 41 36 73 54 50 28 67 32 113 28 29
-2 54 -5 56 -7z m-410 -268 c-11 -5 -29 -9 -40 -9 -17 -1 -17 1 -5 9 8 5 26 9
40 9 23 0 23 -1 5 -9z m-145 -4 c0 -3 -4 -8 -10 -11 -5 -3 -10 -1 -10 4 0 6 5
11 10 11 6 0 10 -2 10 -4z m537 -62 c28 -14 59 -37 69 -52 17 -26 17 -27 -2
-10 -34 29 -116 68 -145 68 -28 0 -36 9 -22 23 9 9 36 1 100 -29z m-77 -151
c41 -19 87 -46 102 -60 49 -47 30 -46 -29 1 -38 29 -84 53 -131 68 -40 13 -69
27 -66 31 10 9 33 2 124 -40z m-1045 -83 c2 -4 -7 -5 -20 -2 -14 2 -25 8 -25
12 0 10 38 1 45 -10z m-14 -28 c-7 -2 -18 1 -23 6 -8 8 -4 9 13 5 13 -4 18 -8
10 -11z m996 -22 c68 -34 107 -69 63 -55 -14 4 -49 18 -79 31 -29 13 -60 24
-67 24 -8 0 -14 7 -14 15 0 23 31 18 97 -15z m-657 -69 c0 -10 -30 -24 -37
-17 -3 3 -2 9 2 15 8 13 35 15 35 2z m-50 -238 c0 -3 -7 -14 -16 -24 -8 -9
-34 -61 -58 -115 -37 -87 -46 -101 -79 -117 -21 -11 -63 -21 -95 -24 -52 -4
-61 -2 -104 27 -27 18 -48 36 -48 41 0 5 11 31 25 58 13 27 29 70 36 96 l12
48 113 -7 c69 -4 115 -3 118 3 4 5 -6 12 -21 14 -16 2 5 5 45 6 39 0 72 -2 72
-6z m100 -31 c0 -16 -5 -55 -11 -88 -10 -57 -28 -84 -56 -84 -11 0 -11 4 1 22
9 12 16 29 16 37 0 21 -37 -15 -66 -65 -22 -37 -69 -72 -82 -60 -5 6 30 98 64
167 27 55 76 99 110 99 20 0 24 -5 24 -28z m-3475 -127 c256 -8 654 -41 915
-75 303 -40 376 -50 420 -60 l45 -9 -50 3 c-82 6 -315 25 -385 32 -95 9 -64
-10 50 -31 52 -9 127 -23 167 -31 40 -8 74 -14 76 -14 2 0 4 -10 3 -22 -1 -18
10 -28 47 -45 56 -26 64 -41 48 -93 l-11 -38 -62 25 c-53 22 -66 24 -98 14
-44 -13 -60 -43 -60 -113 0 -45 4 -54 40 -90 38 -39 40 -39 105 -37 l67 2 30
-47 c17 -25 28 -49 25 -52 -3 -3 -41 -8 -84 -11 -97 -7 -165 11 -242 65 -70
48 -95 94 -99 189 -6 102 21 156 92 189 28 13 69 24 91 25 l40 2 -45 9 c-25 6
-93 12 -152 15 l-108 4 0 -51 c0 -44 -2 -51 -16 -46 -20 8 -139 26 -171 26
-19 0 -23 -5 -23 -34 0 -37 12 -46 63 -46 18 0 49 -3 70 -6 36 -7 37 -7 37
-52 l0 -45 -85 5 -85 6 0 -38 0 -38 68 -7 c37 -3 86 -8 110 -11 l42 -5 0 -51
0 -51 -47 6 c-27 4 -112 12 -190 19 l-143 12 0 213 0 213 -35 0 c-33 0 -35 -2
-35 -31 l0 -31 -70 4 -70 4 0 -180 0 -179 -52 7 c-29 3 -66 6 -81 6 l-28 0 2
178 2 177 -66 3 -67 3 -1 47 c-1 26 -3 39 -6 29 -4 -16 -6 -16 -16 -4 -8 11
-41 18 -108 22 l-96 7 -6 -38 c-4 -22 -7 -123 -7 -226 l0 -188 -83 0 c-99 0
-95 -4 -162 129 -57 110 -63 106 -64 -35 l-1 -92 -67 -4 c-38 -3 -71 -3 -75
-1 -5 2 -8 98 -8 213 0 180 -2 209 -16 214 -9 3 -61 6 -115 6 -99 0 -100 0
-93 -22 5 -18 138 -353 161 -406 4 -10 -14 -12 -83 -10 l-88 3 -8 33 c-8 29
-12 32 -47 32 -21 0 -58 -3 -82 -6 -40 -5 -46 -10 -61 -45 l-17 -39 -70 0
c-39 0 -71 4 -71 9 0 24 107 305 155 408 l24 51 -144 4 c-120 2 -146 6 -163
21 -10 10 -41 20 -68 23 -49 6 -367 -10 -454 -22 -25 -4 -43 -4 -40 -1 6 7
304 42 520 61 264 24 477 37 750 45 247 8 330 8 715 -4z m3786 -83 c-13 -45
-40 -66 -167 -130 -87 -44 -353 -123 -479 -144 -135 -21 -545 -16 -775 10
-107 12 -219 24 -249 28 -30 3 -64 10 -75 15 -23 10 67 5 189 -11 39 -5 178
-14 310 -21 189 -10 270 -10 380 0 411 35 691 124 835 263 19 19 36 33 38 32
2 -1 -1 -20 -7 -42z m-7898 -57 c214 -121 490 -172 871 -162 247 6 369 19 555
57 80 17 147 30 150 30 3 0 -1 5 -9 11 -12 9 -12 10 4 5 10 -4 34 -1 53 5 19
6 36 9 39 6 11 -11 -152 -59 -276 -82 -74 -14 -164 -31 -200 -39 -114 -25
-342 -39 -513 -33 -229 8 -470 62 -647 143 -80 37 -114 63 -136 106 -21 40
-17 54 6 25 12 -15 58 -47 103 -72z m7148 -6 l18 -37 -87 -9 c-48 -6 -90 -8
-95 -6 -4 2 16 33 45 68 l53 64 23 -22 c13 -12 32 -38 43 -58z m-5048 34 c-7
-2 -19 -2 -25 0 -7 3 -2 5 12 5 14 0 19 -2 13 -5z m655 -90 l-3 -48 -105 -10
-105 -10 -3 -39 -3 -38 90 7 91 7 0 -51 0 -51 -59 0 c-32 0 -73 -3 -90 -6 -27
-6 -31 -11 -31 -40 0 -18 3 -35 8 -37 4 -2 50 -1 102 3 52 3 100 5 105 3 6 -2
9 -23 7 -48 -4 -44 -4 -44 -45 -49 -103 -13 -318 -27 -327 -21 -6 4 -10 86
-10 220 l0 213 38 6 c20 3 78 10 127 16 50 7 97 13 105 15 8 1 37 3 63 4 l48
1 -3 -47z m-658 -194 l0 -170 103 3 102 3 -3 -45 c-2 -25 -5 -46 -5 -47 -2 -1
-189 -21 -289 -30 l-68 -6 0 221 0 220 63 10 c34 5 70 10 80 11 16 1 17 -13
17 -170z m-263 110 c8 -8 7 -23 -4 -55 l-15 -44 -57 6 c-105 11 -171 -45 -171
-143 0 -85 55 -123 140 -97 88 28 84 28 108 -15 l23 -40 -30 -16 c-17 -8 -58
-22 -93 -30 -130 -31 -220 -11 -274 61 -26 33 -29 47 -32 118 -3 75 -1 84 26
127 34 52 104 106 166 125 51 16 198 18 213 3z m3838 -13 l40 -12 5 -84 5 -85
45 -7 c25 -4 57 -9 73 -12 l27 -5 0 80 0 80 53 -7 c28 -4 63 -10 77 -14 l25
-6 3 -215 2 -215 -75 10 -75 9 0 88 c0 99 4 95 -95 105 l-65 7 0 -83 0 -82
-32 5 c-18 3 -54 9 -80 13 l-48 6 0 219 0 219 38 -1 c20 0 55 -6 77 -13z m442
8 c-3 -3 -12 -4 -19 -1 -8 3 -5 6 6 6 11 1 17 -2 13 -5z m-2929 -642 c15 -19
16 -58 2 -67 -7 -4 -5 -14 5 -28 21 -30 19 -44 -10 -72 -21 -22 -33 -25 -90
-25 l-65 0 0 104 0 105 43 4 c59 5 100 -2 115 -21z m188 -9 c9 -21 27 -68 39
-105 l24 -68 -29 0 c-15 0 -30 7 -34 15 -3 10 -19 15 -46 15 -29 0 -40 -4 -40
-15 0 -10 -10 -15 -30 -15 l-30 0 25 69 c48 131 53 141 80 141 19 0 28 -9 41
-37z m154 -68 c0 -104 0 -105 -24 -105 -20 0 -24 6 -30 46 -8 61 -8 149 1 157
3 4 17 7 30 7 23 0 23 -2 23 -105z m136 53 l29 -53 3 53 c3 50 4 52 33 52 l30
0 -3 -102 c-3 -99 -4 -103 -26 -106 -31 -5 -51 14 -78 73 l-24 50 0 -57 c0
-54 -2 -58 -24 -58 -22 0 -23 4 -29 91 -4 50 -4 95 -1 100 3 5 18 9 33 9 23 0
33 -9 57 -52z m284 32 c0 -17 -7 -20 -45 -20 -37 0 -45 -3 -45 -19 0 -14 10
-20 40 -25 44 -7 58 -36 18 -36 -62 -1 -62 -47 -1 -52 26 -2 38 -8 38 -18 0
-12 -14 -15 -70 -15 l-70 0 -3 103 -3 102 71 0 c63 0 70 -2 70 -20z m228 4
c26 -18 29 -50 6 -75 -20 -22 -9 -46 12 -28 22 18 47 -6 31 -32 -9 -15 -9 -23
1 -39 11 -19 10 -20 -23 -20 -39 0 -42 -7 -20 -36 16 -21 19 -55 8 -93 -5 -20
-7 -22 -12 -8 -6 16 -8 16 -31 0 -14 -10 -34 -19 -45 -21 -33 -5 -39 -19 -21
-46 11 -18 15 -43 14 -83 -1 -37 4 -71 14 -93 9 -19 18 -44 20 -55 5 -29 44
-32 58 -5 10 18 8 26 -10 45 -29 31 -37 96 -16 126 9 13 16 33 16 44 0 23 42
65 47 48 3 -7 20 -9 42 -6 34 5 40 3 46 -18 10 -31 22 -39 66 -39 53 0 79 -33
86 -108 5 -58 7 -60 38 -66 50 -10 75 -39 75 -91 0 -42 -24 -85 -48 -85 -4 0
-61 -6 -127 -14 -313 -38 -584 -41 -892 -11 -44 4 -45 4 -13 -5 38 -9 194 -36
300 -50 86 -12 300 -12 425 0 79 8 114 7 173 -5 56 -12 78 -13 88 -4 19 15 18
-22 -2 -171 -12 -94 -54 -421 -81 -632 l-6 -46 -61 -16 c-33 -9 -116 -29 -183
-46 -67 -16 -133 -34 -147 -39 -18 -8 -47 -4 -113 15 -48 13 -146 39 -218 57
l-130 32 -8 60 c-4 33 -18 155 -32 270 -36 315 -66 557 -71 583 -3 13 -12 22
-24 22 -47 0 -69 101 -30 140 11 11 32 22 47 26 42 10 53 23 53 64 0 54 18 96
46 109 14 6 65 14 114 18 95 6 99 8 116 38 6 11 24 21 40 23 16 2 42 15 57 30
24 23 36 26 97 27 67 0 69 1 84 33 9 17 29 40 46 50 30 19 30 19 10 37 -23 20
-26 56 -8 88 6 12 11 37 9 55 -5 58 38 80 87 46z m320 -16 c3 -13 -3 -18 -22
-18 -26 0 -26 0 -26 -85 l0 -85 -30 0 -30 0 0 84 0 85 -27 3 c-17 2 -29 10
-31 21 -3 16 4 18 80 15 69 -3 83 -6 86 -20z m-1718 -72 c0 -100 -4 -112 -41
-131 -39 -21 -72 -19 -103 6 -25 19 -26 25 -26 110 0 88 1 90 23 87 20 -3 22
-9 25 -78 3 -82 10 -95 41 -85 19 6 21 14 21 84 0 43 3 81 7 84 3 4 17 7 30 7
22 0 23 -3 23 -84z m194 62 c20 -28 20 -62 1 -82 -19 -18 -19 -30 0 -66 15
-29 15 -30 -9 -30 -17 0 -33 11 -48 30 -28 38 -36 38 -40 -2 -2 -28 -8 -34
-30 -36 l-28 -3 0 105 0 106 69 0 c61 0 72 -3 85 -22z m1691 12 c38 -14 50
-56 29 -102 -16 -35 -16 -39 0 -62 21 -34 20 -43 -6 -41 -20 1 -61 40 -70 66
-7 22 -28 -1 -28 -32 0 -24 -4 -29 -25 -29 l-25 0 0 105 0 105 49 0 c27 0 61
-4 76 -10z m145 -105 l0 -105 -25 0 -25 0 0 105 0 105 25 0 25 0 0 -105z
m-2327 71 c5 -11 -4 -16 -36 -18 -35 -2 -43 -7 -45 -25 -3 -20 1 -23 32 -23
29 0 36 -4 36 -19 0 -20 -18 -31 -51 -31 -12 0 -19 -7 -19 -19 0 -16 8 -20 42
-23 30 -2 44 -8 46 -20 3 -14 -8 -17 -65 -20 -37 -2 -71 -2 -75 0 -10 4 -11
196 -1 205 3 4 34 7 69 7 45 0 63 -4 67 -14z m2618 -24 c29 -32 38 -86 23
-127 -12 -31 -60 -46 -124 -39 l-60 7 0 99 0 100 66 -4 c60 -4 70 -7 95 -36z
m-2801 -62 c0 -83 -2 -91 -24 -105 -38 -25 -92 -30 -120 -11 -31 19 -41 66
-31 141 6 50 9 55 31 55 23 0 24 -2 24 -79 0 -58 4 -82 15 -91 29 -24 45 5 45
80 0 84 6 100 36 100 24 0 24 -2 24 -90z m2983 74 c55 -10 49 -34 -8 -34 -37
0 -45 -3 -45 -19 0 -14 10 -20 40 -25 26 -4 40 -11 40 -21 0 -11 -11 -15 -40
-15 -36 0 -40 -3 -40 -24 0 -23 5 -25 47 -28 36 -2 49 -7 51 -21 3 -16 -3 -17
-70 -11 -40 4 -75 9 -78 11 -2 2 -6 46 -8 98 l-4 95 38 0 c22 0 56 -3 77 -6z
m-3219 -25 c23 -18 26 -27 26 -83 0 -40 -6 -69 -16 -84 -10 -14 -11 -21 -4
-20 7 2 14 -7 16 -19 5 -27 -21 -31 -52 -8 -10 8 -33 15 -50 15 -53 0 -77 28
-82 96 -3 49 0 64 17 86 33 41 104 50 145 17z m3414 5 c38 -11 27 -35 -15 -32
-29 2 -38 -1 -41 -15 -2 -12 7 -22 32 -32 69 -29 84 -91 27 -114 -38 -16 -123
4 -119 28 3 13 13 15 51 13 55 -4 65 16 20 38 -94 47 -98 119 -8 120 17 0 40
-3 53 -6z m-3610 -95 c4 -108 -2 -131 -31 -127 -21 3 -22 8 -25 105 -2 90 -1
102 15 106 34 9 38 0 41 -84z m-88 62 c0 -14 -8 -21 -27 -23 -28 -3 -28 -3
-31 -90 -3 -86 -3 -88 -27 -88 -25 0 -25 1 -25 85 0 84 0 85 -25 85 -15 0 -25
6 -25 15 0 13 19 19 95 28 62 8 65 7 65 -12z m3962 8 c21 -5 50 -21 65 -34 24
-20 28 -31 28 -75 0 -42 -4 -55 -24 -71 -24 -20 -72 -24 -130 -13 l-31 7 0 98
0 99 28 0 c15 0 44 -5 64 -11z m-4167 -33 c13 -10 20 -30 23 -74 4 -58 3 -63
-27 -92 -27 -28 -36 -31 -83 -28 -50 3 -53 5 -66 40 -10 25 -12 52 -7 83 5 37
12 50 38 66 37 22 95 25 122 5z m4447 -4 c18 -18 -2 -32 -43 -32 -32 0 -39 -3
-39 -20 0 -16 7 -20 35 -20 28 0 35 -4 35 -20 0 -16 -7 -20 -36 -20 -28 0 -35
-3 -32 -17 2 -10 12 -19 23 -21 51 -7 65 -14 65 -28 0 -13 -10 -15 -67 -9 -38
4 -71 9 -75 12 -5 2 -8 47 -8 100 l0 96 66 -6 c36 -2 70 -9 76 -15z m-4654
-25 c15 -12 16 -49 0 -65 -9 -9 -7 -16 7 -32 39 -43 -18 -92 -115 -102 l-35
-3 0 105 0 105 50 5 c53 6 72 3 93 -13z m4841 9 c29 -10 31 -13 18 -25 -9 -7
-25 -10 -37 -6 -40 13 -60 -3 -60 -47 0 -49 22 -78 59 -78 14 0 35 -7 45 -15
18 -13 18 -15 2 -21 -25 -10 -106 4 -133 22 -49 31 -59 119 -18 159 27 28 68
31 124 11z m119 -48 c3 -37 4 -38 43 -38 38 0 39 1 39 34 0 30 3 33 24 29 22
-5 24 -11 31 -95 4 -50 3 -94 -2 -99 -5 -5 -18 -6 -30 -3 -17 5 -23 15 -25 43
-3 34 -5 36 -40 39 -38 3 -38 3 -38 -33 0 -34 -2 -36 -27 -33 l-28 3 -3 98 -3
98 28 -3 c24 -3 28 -8 31 -40z m-5166 15 c13 -12 18 -31 18 -75 0 -70 -10 -92
-50 -113 -41 -21 -80 -19 -107 7 -19 18 -23 32 -23 84 0 57 2 64 31 88 36 31
102 36 131 9z m5486 -8 c6 -3 12 -11 12 -20 0 -11 -11 -15 -45 -15 -35 0 -43
-3 -39 -15 4 -8 20 -19 38 -23 17 -5 32 -16 34 -25 3 -13 -4 -17 -32 -17 -29
0 -36 -4 -36 -19 0 -19 25 -31 66 -31 12 0 21 -7 21 -15 0 -12 -15 -15 -74
-15 l-73 0 0 103 0 104 58 -4 c31 -3 63 -6 70 -8z m-5688 -37 c14 -25 13 -31
-4 -63 -16 -29 -17 -40 -8 -61 17 -37 15 -44 -13 -44 -18 0 -31 9 -43 30 -22
39 -32 38 -32 -4 0 -33 -13 -46 -46 -46 -11 0 -14 21 -14 104 0 119 -3 115 90
113 48 -2 56 -5 70 -29z m5865 24 c51 -9 63 -42 16 -42 l-31 0 0 -81 c0 -70
-2 -80 -16 -75 -9 3 -19 6 -24 6 -4 0 -11 36 -14 79 -7 77 -8 80 -34 83 -16 2
-28 10 -30 21 -3 14 4 17 45 16 26 0 66 -3 88 -7z m221 -25 c2 -2 2 -11 -1
-19 -5 -12 -17 -14 -51 -10 -56 6 -59 -13 -6 -35 52 -21 72 -42 72 -73 0 -42
-21 -53 -90 -48 -65 5 -75 10 -67 32 5 12 13 13 37 6 59 -17 85 17 30 40 -74
31 -98 71 -63 105 13 14 29 16 76 12 32 -3 61 -7 63 -10z m-4214 -79 c27 -17
59 -44 73 -60 25 -29 29 -30 128 -34 163 -7 187 -23 187 -124 0 -42 3 -50 19
-50 35 0 80 -22 86 -42 4 -10 4 -30 1 -42 l-6 -23 -72 19 c-69 18 -81 18 -218
4 -80 -9 -198 -19 -263 -22 -64 -4 -115 -9 -113 -11 3 -3 -12 -19 -31 -36
l-36 -32 24 -7 c37 -12 -152 1 -264 18 -55 8 -108 19 -117 24 -20 11 -34 70
-25 101 12 38 115 69 115 34 0 -8 6 -15 13 -15 6 0 73 -7 147 -15 172 -19 334
-19 530 0 205 19 202 18 194 64 -13 68 -21 80 -61 86 -21 3 -46 8 -55 10 -10
2 -18 1 -18 -1 0 -2 20 -30 45 -63 25 -32 45 -62 45 -65 0 -10 -66 -16 -95 -8
-19 5 -36 20 -47 41 -18 37 -47 71 -60 71 -4 0 -8 -16 -8 -35 0 -38 -14 -46
-29 -16 -6 11 -26 21 -51 25 -45 7 -47 11 -23 46 9 14 10 19 3 13 -20 -18 -41
-16 -70 8 -24 20 -24 21 -5 32 11 7 29 15 40 19 19 6 19 6 -2 7 -12 1 -25 -3
-28 -9 -12 -19 -41 -10 -64 21 -21 28 -22 34 -10 58 30 60 39 61 121 9z m-152
-46 c39 -38 50 -65 31 -77 -10 -6 -41 21 -41 36 0 5 -6 9 -13 9 -16 0 -41 27
-50 53 -11 31 30 19 73 -21z m2498 -41 c20 -10 46 -28 56 -40 11 -12 25 -21
31 -21 7 0 18 -7 25 -15 11 -13 8 -17 -19 -26 -41 -14 -36 -28 18 -48 42 -16
83 -63 67 -78 -14 -14 -227 -16 -252 -3 -17 10 -33 10 -66 2 -38 -10 -182 -1
-195 12 -2 2 15 18 37 37 22 19 61 53 87 77 25 23 52 42 59 42 8 0 18 10 25
23 15 29 49 56 72 57 10 0 34 -9 55 -19z m257 -1 c10 -11 26 -20 35 -20 24 0
32 -11 18 -27 -9 -11 -9 -16 1 -23 8 -4 11 -12 7 -18 -3 -5 1 -12 9 -16 8 -3
15 -12 15 -20 0 -7 11 -21 25 -30 23 -15 35 -55 18 -57 -150 -10 -140 -11
-114 9 l23 19 -24 19 c-14 11 -22 27 -20 38 2 11 0 16 -7 12 -15 -10 -91 32
-91 50 0 14 67 84 81 84 3 0 14 -9 24 -20z m-2904 -13 c-1 -4 -1 -13 -1 -21 0
-10 -21 -16 -75 -21 -60 -5 -82 -12 -105 -32 -33 -27 -38 -18 -19 35 11 33 25
37 139 45 55 4 62 3 61 -6z m2379 -17 c-56 -12 -145 -22 -138 -14 12 11 71 22
123 22 47 0 48 0 15 -8z m-2321 -64 c-2 -2 -14 -9 -26 -15 -19 -10 -22 -9 -17
4 4 8 15 15 27 15 11 0 18 -2 16 -4z m175 -22 c5 -13 2 -15 -16 -10 -13 3 -29
6 -36 6 -7 0 -10 5 -7 10 10 16 52 12 59 -6z m36 6 c0 -5 -2 -10 -4 -10 -3 0
-8 5 -11 10 -3 6 -1 10 4 10 6 0 11 -4 11 -10z m-1001 -159 c98 -115 228 -247
328 -334 67 -58 83 -77 83 -100 l0 -29 -40 32 c-165 130 -352 322 -464 475
-57 77 -64 91 -49 97 13 4 25 -3 43 -25 14 -17 58 -69 99 -116z m4545 123 c12
-5 4 -20 -36 -75 -108 -149 -329 -366 -495 -487 -72 -51 -73 -52 -73 -26 0 29
29 59 119 122 95 67 264 234 363 359 91 115 95 118 122 107z m-3449 -24 c3 -5
-3 -10 -14 -10 -11 0 -23 5 -26 10 -3 6 3 10 14 10 11 0 23 -4 26 -10z m2768
-57 c-7 -2 -19 -2 -25 0 -7 3 -2 5 12 5 14 0 19 -2 13 -5z m-65 -8 c-9 -9
-169 -33 -258 -39 -116 -7 -86 2 73 24 142 19 193 23 185 15z m-3301 -262 c-3
-10 -5 -4 -5 12 0 17 2 24 5 18 2 -7 2 -21 0 -30z m940 -20 c-3 -10 -5 -4 -5
12 0 17 2 24 5 18 2 -7 2 -21 0 -30z m-357 -38 c19 -20 40 -33 47 -31 32 13
-3 -76 -36 -94 -25 -13 -111 -13 -111 0 0 5 7 13 16 18 15 8 15 12 -1 41 l-16
33 -25 -34 c-14 -18 -29 -39 -33 -46 -6 -10 -17 -8 -54 8 -26 12 -47 23 -47
26 0 10 22 49 47 82 23 31 26 32 102 32 75 0 78 -1 111 -35z m2498 -102 c1
-68 -1 -123 -5 -123 -5 0 -17 6 -28 13 -11 8 -67 35 -125 62 -58 26 -113 55
-122 63 -20 17 -24 63 -7 93 9 18 20 19 147 17 l137 -3 3 -122z m-3050 -48 l0
-50 -8 40 c-4 22 -10 69 -14 105 l-6 65 15 -55 c8 -30 14 -77 13 -105z m2812
9 c154 -70 240 -124 240 -151 0 -26 -94 -109 -162 -143 -81 -40 -118 -39 -164
3 -45 41 -53 79 -54 244 l0 133 53 -35 c28 -20 68 -43 87 -51z m-2452 -46 c23
-54 22 -69 -2 -49 -11 10 -18 6 -35 -18 -12 -16 -21 -32 -21 -35 0 -3 26 -6
58 -6 l57 0 -3 -58 -4 -58 -58 6 c-69 7 -87 21 -126 95 -27 51 -28 54 -12 93
12 30 13 43 4 52 -17 17 11 30 70 30 l50 0 22 -52z m295 -1 c15 -29 27 -59 27
-68 0 -18 -66 -130 -83 -141 -7 -4 -31 -8 -53 -8 -30 0 -44 -5 -48 -17 -5 -12
-13 -5 -36 31 -17 26 -30 50 -30 54 1 4 16 25 35 47 25 28 35 35 35 23 0 -15
9 -18 46 -18 l46 0 -25 30 c-24 28 -43 68 -35 74 6 6 83 45 88 46 3 0 17 -24
33 -53z"/>
<path d="M5619 8390 l-47 -51 -39 26 c-28 20 -46 25 -67 21 -16 -3 -35 -6 -42
-6 -8 0 -14 -4 -14 -10 0 -5 13 -10 29 -10 33 0 95 -46 87 -65 -7 -19 40 -40
63 -29 10 5 42 37 70 71 36 43 63 65 89 74 64 20 60 29 -13 29 l-69 0 -47 -50z"/>
<path d="M5842 8140 c-19 -33 -37 -39 -46 -15 -3 8 -13 15 -23 15 -16 -1 -15
-3 5 -19 12 -11 22 -24 22 -30 0 -26 40 -7 74 34 l37 45 -26 0 c-18 0 -31 -9
-43 -30z"/>
<path d="M5232 8030 c37 -19 68 -45 89 -75 18 -25 40 -45 50 -45 30 0 49 11
49 29 0 19 34 53 65 66 19 8 19 9 -3 13 -13 2 -41 -5 -62 -16 l-39 -19 -23 24
c-36 38 -72 53 -130 53 l-53 -1 57 -29z"/>
<path d="M6857 7436 c-4 -66 -5 -121 -3 -124 3 -2 27 7 53 20 68 36 70 66 9
130 -24 26 -46 58 -48 70 -2 13 -7 -31 -11 -96z"/>
<path d="M7160 7401 c-19 -16 -33 -32 -30 -34 3 -3 23 10 44 29 48 41 35 45
-14 5z"/>
<path d="M7110 7314 c0 -5 28 -38 61 -74 65 -69 52 -46 -18 35 -24 26 -43 44
-43 39z"/>
<path d="M7322 7137 c29 -56 54 -99 56 -96 3 8 -97 199 -104 199 -3 0 19 -46
48 -103z"/>
<path d="M7122 7167 c2 -24 15 -36 84 -78 105 -63 117 -63 22 0 -40 27 -81 62
-90 78 l-18 28 2 -28z"/>
<path d="M4003 7063 c9 -2 23 -2 30 0 6 3 -1 5 -18 5 -16 0 -22 -2 -12 -5z"/>
<path d="M2058 7308 c-37 -28 -89 -251 -74 -312 6 -26 9 -28 44 -21 20 4 62
15 92 25 30 10 82 23 114 30 l59 12 -7 121 c-4 84 -10 126 -20 135 -20 21
-185 28 -208 10z"/>
<path d="M5853 7203 c20 -2 54 -2 75 0 20 2 3 4 -38 4 -41 0 -58 -2 -37 -4z"/>
<path d="M3762 6960 c0 -19 2 -27 5 -17 2 9 2 25 0 35 -3 9 -5 1 -5 -18z"/>
<path d="M8095 6545 c-93 -38 -163 -130 -185 -245 -13 -67 -13 -105 0 -152 9
-32 20 -42 80 -75 58 -31 69 -41 64 -57 -6 -19 -3 -19 122 -10 211 15 317 11
449 -15 173 -34 243 -19 299 66 35 53 59 154 51 212 -16 119 -62 189 -160 247
-68 39 -120 45 -264 26 -122 -16 -125 -16 -210 6 -111 28 -171 28 -246 -3z
m110 -210 c61 -46 55 -143 -10 -165 -79 -26 -154 66 -114 141 9 19 60 48 83
49 5 0 24 -11 41 -25z m567 -23 c12 -12 21 -39 25 -74 5 -50 3 -57 -18 -72
-29 -20 -98 -21 -126 -1 -35 24 -48 77 -28 118 9 19 26 39 38 46 30 14 87 6
109 -17z"/>
<path d="M8309 5892 c27 -51 116 -85 169 -63 32 13 89 67 80 76 -3 3 -21 -2
-41 -10 -45 -19 -119 -19 -172 0 -50 18 -48 18 -36 -3z"/>
<path d="M2400 5902 l-155 -27 -3 -153 -3 -153 23 6 c13 2 91 16 175 29 86 14
169 34 190 45 78 40 113 94 113 174 0 35 -6 49 -30 72 -26 25 -39 29 -93 31
-34 2 -132 -9 -217 -24z"/>
<path d="M2480 5165 c-36 -7 -104 -18 -152 -25 l-88 -12 0 -182 0 -182 183 29
c202 32 279 59 327 113 70 80 64 207 -12 254 -39 24 -152 26 -258 5z"/>
<path d="M8635 5155 c-14 -19 -15 -19 -25 -2 -15 23 -52 22 -81 -4 -22 -18
-22 -20 -3 -14 26 7 117 -10 122 -23 2 -7 16 -5 38 4 48 20 66 6 21 -17 -33
-17 -34 -20 -24 -44 23 -49 77 -14 77 50 0 35 -15 55 -42 55 -10 0 -18 4 -18
9 0 17 -51 6 -65 -14z"/>
<path d="M9476 5183 c-6 -14 -5 -15 5 -6 7 7 10 15 7 18 -3 3 -9 -2 -12 -12z"/>
<path d="M4849 4236 c-2 -3 -28 -6 -57 -7 -33 -2 -51 -7 -49 -13 3 -6 30 -56
61 -111 l56 -100 0 118 c0 112 -1 123 -11 113z"/>
<path d="M4193 4015 c-11 -30 -17 -57 -12 -60 5 -3 24 -3 43 0 l34 7 -13 45
c-8 25 -18 50 -22 54 -5 5 -18 -16 -30 -46z"/>
<path d="M4230 3390 c0 -17 5 -21 28 -18 16 2 27 9 27 18 0 9 -11 16 -27 18
-23 3 -28 -1 -28 -18z"/>
<path d="M4234 3315 c-8 -20 4 -35 26 -35 23 0 32 13 24 34 -8 20 -43 21 -50
1z"/>
<path d="M4462 3360 c-7 -19 -6 -26 5 -28 21 -5 25 2 14 29 l-9 24 -10 -25z"/>
<path d="M5270 3405 c0 -9 5 -15 11 -13 6 2 11 8 11 13 0 5 -5 11 -11 13 -6 2
-11 -4 -11 -13z"/>
<path d="M5250 3311 c0 -13 29 -35 37 -28 7 8 -15 37 -28 37 -5 0 -9 -4 -9 -9z"/>
<path d="M5151 3104 l-23 -12 22 -7 c25 -8 33 -3 28 17 -2 11 -8 12 -27 2z"/>
<path d="M5381 2934 c0 -11 3 -14 6 -6 3 7 2 16 -1 19 -3 4 -6 -2 -5 -13z"/>
<path d="M4735 2925 c-5 -2 -22 -6 -36 -9 -20 -4 -30 -17 -44 -51 -9 -26 -15
-48 -12 -51 2 -3 33 -7 68 -10 35 -2 76 -7 92 -9 19 -3 27 0 27 10 0 8 -6 12
-13 9 -7 -2 -24 -1 -38 4 -13 5 -34 6 -46 1 -13 -5 -23 -6 -23 -3 0 11 40 83
50 89 6 4 8 11 5 16 -6 9 -12 10 -30 4z"/>
<path d="M5467 2918 c39 -61 80 -108 94 -108 29 0 31 17 11 63 -16 36 -26 45
-52 51 -49 9 -62 8 -53 -6z"/>
<path d="M5391 2900 c0 -8 4 -22 9 -30 12 -18 12 -2 0 25 -6 13 -9 15 -9 5z"/>
<path d="M5093 2858 c-6 -7 -16 -24 -23 -38 -12 -24 -11 -24 21 5 19 16 38 33
44 37 5 5 0 8 -12 8 -11 0 -25 -6 -30 -12z"/>
<path d="M5120 2441 c-13 -9 -13 -11 -1 -11 8 0 25 -10 38 -22 l23 -21 -35
-62 c-21 -38 -29 -62 -22 -63 7 -1 37 -8 67 -17 86 -24 93 -21 136 52 l18 33
-29 31 c-62 66 -158 105 -195 80z"/>
<path d="M4908 2209 c-10 -5 -18 -19 -18 -30 0 -12 -8 -23 -20 -26 -30 -8 -33
-35 -10 -95 26 -70 81 -124 140 -137 79 -18 85 -16 109 38 11 27 21 59 21 70
0 25 -21 26 -119 11 -35 -6 -66 -9 -68 -6 -3 3 15 29 41 59 52 62 57 89 20
114 -21 13 -32 15 -55 6 -16 -6 -27 -7 -23 -2 7 11 4 11 -18 -2z"/>
<path d="M4020 3381 c0 -34 15 -39 46 -17 21 16 14 29 -23 41 -20 6 -23 3 -23
-24z"/>
<path d="M5734 3385 c3 -9 6 -21 6 -26 0 -5 12 -9 26 -9 21 0 25 4 22 23 -2
16 -11 23 -32 25 -23 3 -28 0 -22 -13z"/>
<path d="M6140 3310 c0 -66 12 -80 49 -60 16 8 21 20 21 50 0 42 -20 70 -51
70 -17 0 -19 -7 -19 -60z"/>
<path d="M3116 3324 c-12 -12 -16 -30 -14 -68 3 -49 4 -51 33 -51 l30 0 0 65
c0 70 -16 88 -49 54z"/>
<path d="M6842 3243 c3 -52 5 -58 26 -61 32 -5 52 15 52 49 0 34 -31 69 -60
69 -19 0 -21 -5 -18 -57z"/>
<path d="M2621 3261 c-13 -24 -14 -81 -2 -99 4 -8 19 -12 32 -10 22 3 24 7 24
63 0 54 -2 60 -22 63 -14 2 -26 -4 -32 -17z"/>
<path d="M2417 3254 c-4 -4 -7 -16 -7 -26 0 -15 6 -19 28 -16 19 2 27 9 27 23
0 20 -33 33 -48 19z"/>
<path d="M2410 3144 c0 -22 4 -25 28 -22 19 2 28 9 30 26 3 19 -1 22 -27 22
-27 0 -31 -4 -31 -26z"/>
<path d="M2200 3204 c-30 -79 14 -153 55 -91 11 17 13 37 9 70 -6 41 -10 47
-31 47 -16 0 -27 -8 -33 -26z"/>
<path d="M2000 3174 c0 -21 4 -25 23 -22 14 2 23 11 25 26 3 18 -1 22 -22 22
-21 0 -26 -5 -26 -26z"/>
<path d="M7443 7662 c-9 -6 -7 -16 7 -37 l20 -30 -6 35 c-8 42 -7 41 -21 32z"/>
</g>
</svg>
